<svg width="40" height="26" viewBox="0 0 40 26" fill="none" xmlns="http://www.w3.org/2000/svg">
<path d="M20.5196 9.45753C20.5196 4.23428 24.8681 0 30.2333 0C35.5984 0 39.4925 4.08837 39.9469 9.29309C40.6406 17.235 34.4438 23.8845 26.9205 26C29.4849 24.4904 31.2738 21.8648 31.5721 18.8113C31.1329 18.872 30.6886 18.9151 30.2333 18.9151C24.8681 18.9151 20.5196 14.6813 20.5196 9.45753Z" fill="#E7EBF0"/>
<path d="M0.000114441 9.45753C0.000114441 4.23428 4.34858 0 9.71423 0C15.0789 0 18.9735 4.08837 19.4283 9.29309C20.122 17.235 13.9252 23.8845 6.4015 26C8.96585 24.4904 10.7542 21.8648 11.053 18.8113C10.6139 18.872 10.1691 18.9151 9.71423 18.9151C4.34858 18.9151 0.000114441 14.6813 0.000114441 9.45753Z" fill="#E7EBF0"/>
</svg>
